{
  "asset": {
    "generator": "Khronos glTF Blender I/O v3.6.27",
    "version": "2.0"
  },
  "extensionsUsed": [
    "KHR_materials_clearcoat",
    "KHR_materials_specular",
    "KHR_materials_ior",
    "KHR_materials_emissive_strength"
  ],
  "scene": 0,
  "scenes": [
    {
      "name": "Scene",
      "nodes": [0, 1, 2, 3, 4, 5, 6, 7, 8, 9]
    }
  ],
  "nodes": [
    {
      "mesh": 0,
      "name": "Cylinder.002"
    },
    {
      "mesh": 1,
      "name": "wings.004"
    },
    {
      "mesh": 2,
      "name": "Cube.012"
    },
    {
      "mesh": 3,
      "name": "Cube.013"
    },
    {
      "mesh": 4,
      "name": "Cube.014"
    },
    {
      "mesh": 5,
      "name": "Icosphere"
    },
    {
      "mesh": 6,
      "name": "Cube.015"
    },
    {
      "mesh": 7,
      "name": "Cube.016"
    },
    {
      "mesh": 8,
      "name": "Cube.017"
    },
    {
      "mesh": 9,
      "name": "Cube.018"
    }
  ],
  "materials": [
    {
      "doubleSided": true,
      "extensions": {
        "KHR_materials_clearcoat": {
          "clearcoatFactor": 0.7168141603469849,
          "clearcoatRoughnessFactor": 0.029999999329447746
        }
      },
      "name": "Material.009",
      "pbrMetallicRoughness": {
        "baseColorFactor": [0.16186101734638214, 0.17335805296897888, 0.1696901023387909, 1],
        "metallicFactor": 0.7116250991821289
      }
    },
    {
      "doubleSided": true,
      "extensions": {
        "KHR_materials_clearcoat": {
          "clearcoatFactor": 1,
          "clearcoatRoughnessFactor": 0.029999999329447746
        }
      },
      "name": "Material.003",
      "pbrMetallicRoughness": {
        "baseColorFactor": [0.5209944248199463, 0.8307690620422363, 0.9822505116462708, 1],
        "metallicFactor": 0,
        "roughnessFactor": 0.5
      }
    },
    {
      "doubleSided": true,
      "extensions": {
        "KHR_materials_clearcoat": {
          "clearcoatFactor": 0.08006379008293152,
          "clearcoatRoughnessFactor": 0.029999999329447746
        },
        "KHR_materials_specular": {
          "specularColorFactor": [0.6564487649979062, 0.6564487649979062, 0.6564487649979062]
        },
        "KHR_materials_ior": {
          "ior": 1.4500000476837158
        }
      },
      "name": "Material",
      "pbrMetallicRoughness": {
        "baseColorFactor": [0.04653950780630112, 0.048283495008945465, 0.05780255049467087, 1],
        "metallicFactor": 0.09326960146427155,
        "roughnessFactor": 0.6201131343841553
      }
    },
    {
      "doubleSided": true,
      "extensions": {
        "KHR_materials_clearcoat": {
          "clearcoatFactor": 1,
          "clearcoatRoughnessFactor": 0.029999999329447746
        }
      },
      "name": "Material.006",
      "pbrMetallicRoughness": {
        "baseColorFactor": [0.01599481701850891, 0.01599481701850891, 0.01599481701850891, 1],
        "metallicFactor": 0,
        "roughnessFactor": 0.843181848526001
      }
    },
    {
      "doubleSided": true,
      "extensions": {
        "KHR_materials_clearcoat": {
          "clearcoatFactor": 0.7168141603469849,
          "clearcoatRoughnessFactor": 0.029999999329447746
        }
      },
      "name": "Material.009",
      "pbrMetallicRoughness": {
        "baseColorFactor": [0.16186101734638214, 0.17335805296897888, 0.1696901023387909, 1],
        "metallicFactor": 0.7116250991821289
      }
    },
    {
      "doubleSided": true,
      "emissiveFactor": [1, 1, 1],
      "extensions": {
        "KHR_materials_emissive_strength": {
          "emissiveStrength": 12.399999618530273
        }
      },
      "name": "Material.010",
      "pbrMetallicRoughness": {
        "baseColorFactor": [0, 0, 0, 1]
      }
    },
    {
      "doubleSided": true,
      "extensions": {
        "KHR_materials_clearcoat": {
          "clearcoatFactor": 0.3648068606853485,
          "clearcoatRoughnessFactor": 0.029999999329447746
        }
      },
      "name": "Material.001",
      "pbrMetallicRoughness": {
        "baseColorFactor": [0, 0, 0, 1],
        "metallicFactor": 0,
        "roughnessFactor": 0.5
      }
    }
  ],
  "meshes": [
    {
      "name": "Cylinder.002",
      "primitives": [
        {
          "attributes": {
            "POSITION": 0,
            "NORMAL": 1,
            "TEXCOORD_0": 2,
            "TANGENT": 3
          },
          "indices": 4,
          "material": 0
        }
      ]
    },
    {
      "name": "Cube.002",
      "primitives": [
        {
          "attributes": {
            "POSITION": 5,
            "NORMAL": 6,
            "TEXCOORD_0": 7
          },
          "indices": 8,
          "material": 1
        },
        {
          "attributes": {
            "POSITION": 9,
            "NORMAL": 10,
            "TEXCOORD_0": 11
          },
          "indices": 12,
          "material": 2
        }
      ]
    },
    {
      "name": "Cube",
      "primitives": [
        {
          "attributes": {
            "POSITION": 13,
            "NORMAL": 14,
            "TEXCOORD_0": 15
          },
          "indices": 16,
          "material": 2
        }
      ]
    },
    {
      "name": "Cube.003",
      "primitives": [
        {
          "attributes": {
            "POSITION": 17,
            "NORMAL": 18,
            "TEXCOORD_0": 19
          },
          "indices": 20,
          "material": 3
        }
      ]
    },
    {
      "name": "Cube.004",
      "primitives": [
        {
          "attributes": {
            "POSITION": 21,
            "NORMAL": 22,
            "TEXCOORD_0": 23
          },
          "indices": 24,
          "material": 4
        }
      ]
    },
    {
      "name": "Icosphere",
      "primitives": [
        {
          "attributes": {
            "POSITION": 25,
            "NORMAL": 26,
            "TEXCOORD_0": 27,
            "TANGENT": 28
          },
          "indices": 29,
          "material": 5
        }
      ]
    },
    {
      "name": "Cube.006",
      "primitives": [
        {
          "attributes": {
            "POSITION": 30,
            "NORMAL": 31,
            "TEXCOORD_0": 32
          },
          "indices": 33,
          "material": 2
        }
      ]
    },
    {
      "name": "Cube.001",
      "primitives": [
        {
          "attributes": {
            "POSITION": 34,
            "NORMAL": 35,
            "TEXCOORD_0": 36,
            "TANGENT": 37
          },
          "indices": 38,
          "material": 2
        }
      ]
    },
    {
      "name": "Cube.005",
      "primitives": [
        {
          "attributes": {
            "POSITION": 39,
            "NORMAL": 40,
            "TEXCOORD_0": 41
          },
          "indices": 42,
          "material": 6
        }
      ]
    },
    {
      "name": "Cube.020",
      "primitives": [
        {
          "attributes": {
            "POSITION": 43,
            "NORMAL": 44,
            "TEXCOORD_0": 45
          },
          "indices": 46,
          "material": 6
        }
      ]
    }
  ],
  "accessors": [
    {
      "bufferView": 0,
      "componentType": 5126,
      "count": 1477,
      "max": [0.2599335312843323, 0.2469637542963028, -0.7362823486328125],
      "min": [-0.26758918166160583, -0.28043505549430847, -1.160386323928833],
      "type": "VEC3"
    },
    {
      "bufferView": 1,
      "componentType": 5126,
      "count": 1477,
      "type": "VEC3"
    },
    {
      "bufferView": 2,
      "componentType": 5126,
      "count": 1477,
      "type": "VEC2"
    },
    {
      "bufferView": 3,
      "componentType": 5126,
      "count": 1477,
      "type": "VEC4"
    },
    {
      "bufferView": 4,
      "componentType": 5123,
      "count": 5760,
      "type": "SCALAR"
    },
    {
      "bufferView": 5,
      "componentType": 5126,
      "count": 172,
      "max": [1.8912115097045898, 0.11437259614467621, 0.49301671981811523],
      "min": [-1.8912115097045898, -0.12900854647159576, -0.8800935745239258],
      "type": "VEC3"
    },
    {
      "bufferView": 6,
      "componentType": 5126,
      "count": 172,
      "type": "VEC3"
    },
    {
      "bufferView": 7,
      "componentType": 5126,
      "count": 172,
      "type": "VEC2"
    },
    {
      "bufferView": 8,
      "componentType": 5123,
      "count": 420,
      "type": "SCALAR"
    },
    {
      "bufferView": 9,
      "componentType": 5126,
      "count": 766,
      "max": [1.9174985885620117, 0.1463451236486435, 0.5053484439849854],
      "min": [-1.9174985885620117, -0.17797614634037018, -0.8978526592254639],
      "type": "VEC3"
    },
    {
      "bufferView": 10,
      "componentType": 5126,
      "count": 766,
      "type": "VEC3"
    },
    {
      "bufferView": 11,
      "componentType": 5126,
      "count": 766,
      "type": "VEC2"
    },
    {
      "bufferView": 12,
      "componentType": 5123,
      "count": 1848,
      "type": "SCALAR"
    },
    {
      "bufferView": 13,
      "componentType": 5126,
      "count": 1883,
      "max": [0.4353479743003845, 0.34709957242012024, 1.3650978803634644],
      "min": [-0.4353480041027069, -0.2851877808570862, -0.9361164569854736],
      "type": "VEC3"
    },
    {
      "bufferView": 14,
      "componentType": 5126,
      "count": 1883,
      "type": "VEC3"
    },
    {
      "bufferView": 15,
      "componentType": 5126,
      "count": 1883,
      "type": "VEC2"
    },
    {
      "bufferView": 16,
      "componentType": 5123,
      "count": 9324,
      "type": "SCALAR"
    },
    {
      "bufferView": 17,
      "componentType": 5126,
      "count": 153,
      "max": [0.32236742973327637, 0.3471373915672302, 0.9048209190368652],
      "min": [-0.32236742973327637, 0.1362362653017044, 0.48280537128448486],
      "type": "VEC3"
    },
    {
      "bufferView": 18,
      "componentType": 5126,
      "count": 153,
      "type": "VEC3"
    },
    {
      "bufferView": 19,
      "componentType": 5126,
      "count": 153,
      "type": "VEC2"
    },
    {
      "bufferView": 20,
      "componentType": 5123,
      "count": 762,
      "type": "SCALAR"
    },
    {
      "bufferView": 21,
      "componentType": 5126,
      "count": 91,
      "max": [0.05202770233154297, 0.48974454402923584, -0.309294730424881],
      "min": [-0.05085742101073265, 0.10082898288965225, -0.9999861121177673],
      "type": "VEC3"
    },
    {
      "bufferView": 22,
      "componentType": 5126,
      "count": 91,
      "type": "VEC3"
    },
    {
      "bufferView": 23,
      "componentType": 5126,
      "count": 91,
      "type": "VEC2"
    },
    {
      "bufferView": 24,
      "componentType": 5123,
      "count": 312,
      "type": "SCALAR"
    },
    {
      "bufferView": 25,
      "componentType": 5126,
      "count": 240,
      "max": [0.1860496550798416, 0.17714762687683105, -0.8569208383560181],
      "min": [-0.1958567351102829, -0.2244119644165039, -1.258480429649353],
      "type": "VEC3"
    },
    {
      "bufferView": 26,
      "componentType": 5126,
      "count": 240,
      "type": "VEC3"
    },
    {
      "bufferView": 27,
      "componentType": 5126,
      "count": 240,
      "type": "VEC2"
    },
    {
      "bufferView": 28,
      "componentType": 5126,
      "count": 240,
      "type": "VEC4"
    },
    {
      "bufferView": 29,
      "componentType": 5123,
      "count": 240,
      "type": "SCALAR"
    },
    {
      "bufferView": 30,
      "componentType": 5126,
      "count": 362,
      "max": [0.9442479610443115, -0.0055020637810230255, 0.4224201440811157],
      "min": [-0.9442479610443115, -0.37544184923171997, -0.24962328374385834],
      "type": "VEC3"
    },
    {
      "bufferView": 31,
      "componentType": 5126,
      "count": 362,
      "type": "VEC3"
    },
    {
      "bufferView": 32,
      "componentType": 5126,
      "count": 362,
      "type": "VEC2"
    },
    {
      "bufferView": 33,
      "componentType": 5123,
      "count": 1056,
      "type": "SCALAR"
    },
    {
      "bufferView": 34,
      "componentType": 5126,
      "count": 216,
      "max": [0.9040336012840271, -0.048346854746341705, 0.43820714950561523],
      "min": [-0.9040336012840271, -0.3324248194694519, 0.4224201440811157],
      "type": "VEC3"
    },
    {
      "bufferView": 35,
      "componentType": 5126,
      "count": 216,
      "type": "VEC3"
    },
    {
      "bufferView": 36,
      "componentType": 5126,
      "count": 216,
      "type": "VEC2"
    },
    {
      "bufferView": 37,
      "componentType": 5126,
      "count": 216,
      "type": "VEC4"
    },
    {
      "bufferView": 38,
      "componentType": 5123,
      "count": 408,
      "type": "SCALAR"
    },
    {
      "bufferView": 39,
      "componentType": 5126,
      "count": 549,
      "max": [-0.3654158115386963, 0.05796733498573303, 0.9048209190368652],
      "min": [-0.4354369044303894, -0.09601256251335144, -0.8157134056091309],
      "type": "VEC3"
    },
    {
      "bufferView": 40,
      "componentType": 5126,
      "count": 549,
      "type": "VEC3"
    },
    {
      "bufferView": 41,
      "componentType": 5126,
      "count": 549,
      "type": "VEC2"
    },
    {
      "bufferView": 42,
      "componentType": 5123,
      "count": 3120,
      "type": "SCALAR"
    },
    {
      "bufferView": 43,
      "componentType": 5126,
      "count": 556,
      "max": [0.43574273586273193, 0.05796733498573303, 0.9048209190368652],
      "min": [0.37895241379737854, -0.09339340031147003, -0.8157134056091309],
      "type": "VEC3"
    },
    {
      "bufferView": 44,
      "componentType": 5126,
      "count": 556,
      "type": "VEC3"
    },
    {
      "bufferView": 45,
      "componentType": 5126,
      "count": 556,
      "type": "VEC2"
    },
    {
      "bufferView": 46,
      "componentType": 5123,
      "count": 3120,
      "type": "SCALAR"
    }
  ],
  "bufferViews": [
    {
      "buffer": 0,
      "byteLength": 17724,
      "byteOffset": 0,
      "target": 34962
    },
    {
      "buffer": 0,
      "byteLength": 17724,
      "byteOffset": 17724,
      "target": 34962
    },
    {
      "buffer": 0,
      "byteLength": 11816,
      "byteOffset": 35448,
      "target": 34962
    },
    {
      "buffer": 0,
      "byteLength": 23632,
      "byteOffset": 47264,
      "target": 34962
    },
    {
      "buffer": 0,
      "byteLength": 11520,
      "byteOffset": 70896,
      "target": 34963
    },
    {
      "buffer": 0,
      "byteLength": 2064,
      "byteOffset": 82416,
      "target": 34962
    },
    {
      "buffer": 0,
      "byteLength": 2064,
      "byteOffset": 84480,
      "target": 34962
    },
    {
      "buffer": 0,
      "byteLength": 1376,
      "byteOffset": 86544,
      "target": 34962
    },
    {
      "buffer": 0,
      "byteLength": 840,
      "byteOffset": 87920,
      "target": 34963
    },
    {
      "buffer": 0,
      "byteLength": 9192,
      "byteOffset": 88760,
      "target": 34962
    },
    {
      "buffer": 0,
      "byteLength": 9192,
      "byteOffset": 97952,
      "target": 34962
    },
    {
      "buffer": 0,
      "byteLength": 6128,
      "byteOffset": 107144,
      "target": 34962
    },
    {
      "buffer": 0,
      "byteLength": 3696,
      "byteOffset": 113272,
      "target": 34963
    },
    {
      "buffer": 0,
      "byteLength": 22596,
      "byteOffset": 116968,
      "target": 34962
    },
    {
      "buffer": 0,
      "byteLength": 22596,
      "byteOffset": 139564,
      "target": 34962
    },
    {
      "buffer": 0,
      "byteLength": 15064,
      "byteOffset": 162160,
      "target": 34962
    },
    {
      "buffer": 0,
      "byteLength": 18648,
      "byteOffset": 177224,
      "target": 34963
    },
    {
      "buffer": 0,
      "byteLength": 1836,
      "byteOffset": 195872,
      "target": 34962
    },
    {
      "buffer": 0,
      "byteLength": 1836,
      "byteOffset": 197708,
      "target": 34962
    },
    {
      "buffer": 0,
      "byteLength": 1224,
      "byteOffset": 199544,
      "target": 34962
    },
    {
      "buffer": 0,
      "byteLength": 1524,
      "byteOffset": 200768,
      "target": 34963
    },
    {
      "buffer": 0,
      "byteLength": 1092,
      "byteOffset": 202292,
      "target": 34962
    },
    {
      "buffer": 0,
      "byteLength": 1092,
      "byteOffset": 203384,
      "target": 34962
    },
    {
      "buffer": 0,
      "byteLength": 728,
      "byteOffset": 204476,
      "target": 34962
    },
    {
      "buffer": 0,
      "byteLength": 624,
      "byteOffset": 205204,
      "target": 34963
    },
    {
      "buffer": 0,
      "byteLength": 2880,
      "byteOffset": 205828,
      "target": 34962
    },
    {
      "buffer": 0,
      "byteLength": 2880,
      "byteOffset": 208708,
      "target": 34962
    },
    {
      "buffer": 0,
      "byteLength": 1920,
      "byteOffset": 211588,
      "target": 34962
    },
    {
      "buffer": 0,
      "byteLength": 3840,
      "byteOffset": 213508,
      "target": 34962
    },
    {
      "buffer": 0,
      "byteLength": 480,
      "byteOffset": 217348,
      "target": 34963
    },
    {
      "buffer": 0,
      "byteLength": 4344,
      "byteOffset": 217828,
      "target": 34962
    },
    {
      "buffer": 0,
      "byteLength": 4344,
      "byteOffset": 222172,
      "target": 34962
    },
    {
      "buffer": 0,
      "byteLength": 2896,
      "byteOffset": 226516,
      "target": 34962
    },
    {
      "buffer": 0,
      "byteLength": 2112,
      "byteOffset": 229412,
      "target": 34963
    },
    {
      "buffer": 0,
      "byteLength": 2592,
      "byteOffset": 231524,
      "target": 34962
    },
    {
      "buffer": 0,
      "byteLength": 2592,
      "byteOffset": 234116,
      "target": 34962
    },
    {
      "buffer": 0,
      "byteLength": 1728,
      "byteOffset": 236708,
      "target": 34962
    },
    {
      "buffer": 0,
      "byteLength": 3456,
      "byteOffset": 238436,
      "target": 34962
    },
    {
      "buffer": 0,
      "byteLength": 816,
      "byteOffset": 241892,
      "target": 34963
    },
    {
      "buffer": 0,
      "byteLength": 6588,
      "byteOffset": 242708,
      "target": 34962
    },
    {
      "buffer": 0,
      "byteLength": 6588,
      "byteOffset": 249296,
      "target": 34962
    },
    {
      "buffer": 0,
      "byteLength": 4392,
      "byteOffset": 255884,
      "target": 34962
    },
    {
      "buffer": 0,
      "byteLength": 6240,
      "byteOffset": 260276,
      "target": 34963
    },
    {
      "buffer": 0,
      "byteLength": 6672,
      "byteOffset": 266516,
      "target": 34962
    },
    {
      "buffer": 0,
      "byteLength": 6672,
      "byteOffset": 273188,
      "target": 34962
    },
    {
      "buffer": 0,
      "byteLength": 4448,
      "byteOffset": 279860,
      "target": 34962
    },
    {
      "buffer": 0,
      "byteLength": 6240,
      "byteOffset": 284308,
      "target": 34963
    }
  ],
  "buffers": [
    {
      "byteLength": 290548,
      "uri": "data:application/octet-stream;base64,"
    }
  ]
}
